. 
  
http://www.torrenting.com/        :     Greatest Movie Tracker on The Net!!!
 
http://www.Torrenting.com          :     Once & For all ;)


               www . Torrenting . Com 

(((((((((((((= Enjoy No RAR releases =))))))))))))))))))))


...................................NFO:....................................

.[img]http://img194.imageshack.us/img194/7136/horriblebossesbluray.jpg[/img]

SAMURAi Presents to you:
Horrible.Bosses.2011.EXTENDED.BRRip.XviD.AC3-SAMURAi

Encode:
Source was good usual filters added

Source: Bluray
Video: 720X304 @bitrate 1400 @2pass
Audio: AC3 5.1 @448 KB
Sample: yes, included  
http://www.imdb.com/title/tt1499658/

General
Complete name                    : Horrible.Bosses.EXTENDED.BRRip.XviD.AC3-SAMURAi.avi
Format                           : AVI
Format/Info                      : Audio Video Interleave
File size                        : 1.37 GiB
Duration                         : 1h 45mn
Overall bit rate                 : 1 858 Kbps
Writing application              : Nandub v1.0rc2
Writing library                  : Nandub build 1852/release

Video
ID                               : 0
Format                           : MPEG-4 Visual
Format profile                   : Advanced Simple@L5
Format settings, BVOP            : 2
Format settings, QPel            : No
Format settings, GMC             : No warppoints
Format settings, Matrix          : Default (H.263)
Muxing mode                      : Packed bitstream
Codec ID                         : XVID
Codec ID/Hint                    : XviD
Duration                         : 1h 45mn
Bit rate                         : 1 400 Kbps
Width                            : 720 pixels
Height                           : 304 pixels
Display aspect ratio             : 2.35:1
Frame rate                       : 23.976 fps
Color space                      : YUV
Chroma subsampling               : 4:2:0
Bit depth                        : 8 bits
Scan type                        : Progressive
Compression mode                 : Lossy
Bits/(Pixel*Frame)               : 0.267
Stream size                      : 1.03 GiB (75%)
Writing library                  : XviD 64

Audio
ID                               : 1
Format                           : AC-3
Format/Info                      : Audio Coding 3
Mode extension                   : CM (complete main)
Codec ID                         : 2000
Duration                         : 1h 45mn
Bit rate mode                    : Constant
Bit rate                         : 448 Kbps
Channel(s)                       : 6 channels
Channel positions                : Front: L C R, Side: L R, LFE
Sampling rate                    : 48.0 KHz
Bit depth                        : 16 bits
Compression mode                 : Lossy
Stream size                      : 338 MiB (24%)
Alignment                        : Split accross interleaves
Interleave, duration             : 42 ms (1.00 video frame)
Interleave, preload duration     : 500 ms


Plot
Three friends conspire to murder their awful bosses when they realize they are standing in 
the way of their happiness. 


Screenshots
[img]http://img831.imageshack.us/img831/6807/vlcsnap2011100412h09m57.png[/img]
[img]http://img268.imageshack.us/img268/7611/vlcsnap2011100412h10m21.png[/img]
[img]http://img440.imageshack.us/img440/1858/vlcsnap2011100412h10m33.png[/img]
[img]http://img703.imageshack.us/img703/7674/vlcsnap2011100412h10m43.png[/img]
[img]http://img834.imageshack.us/img834/1264/vlcsnap2011100412h10m49.png[/img]


Greetz:
Cm8, Santi, Rx, Noir, Ember, NPW, Unknown, VIP3R, SiC, Flojo, and other
p2p groups come and past!

Contact:
Got any requests or anything to offer?
Contact me at SAMURAi@Hushmail.me